<?xml version="1.0" encoding="utf-8"?>
<!-- Generator: Adobe Illustrator 23.0.2, SVG Export Plug-In . SVG Version: 6.00 Build 0)  -->
<svg version="1.1" id="图层_1" xmlns="http://www.w3.org/2000/svg" xmlns:xlink="http://www.w3.org/1999/xlink" x="0px" y="0px"
	 viewBox="0 0 841.89 595.28" style="enable-background:new 0 0 841.89 595.28;" xml:space="preserve">
<style type="text/css">
	.st0{fill:none;stroke:#EFEFEF;stroke-miterlimit:10;}
</style>
<g>
	<rect class="st0" width="841.89" height="595.28"/>
	<line class="st0" x1="0" y1="583.6" x2="841.89" y2="583.6"/>
	<line class="st0" x1="0" y1="571.93" x2="841.89" y2="571.93"/>
	<line class="st0" x1="0" y1="560.26" x2="841.89" y2="560.26"/>
	<line class="st0" x1="0" y1="548.59" x2="841.89" y2="548.59"/>
	<line class="st0" x1="0" y1="536.92" x2="841.89" y2="536.92"/>
	<line class="st0" x1="0" y1="525.24" x2="841.89" y2="525.24"/>
	<line class="st0" x1="0" y1="513.57" x2="841.89" y2="513.57"/>
	<line class="st0" x1="0" y1="501.9" x2="841.89" y2="501.9"/>
	<line class="st0" x1="0" y1="490.23" x2="841.89" y2="490.23"/>
	<line class="st0" x1="0" y1="478.55" x2="841.89" y2="478.55"/>
	<line class="st0" x1="0" y1="466.88" x2="841.89" y2="466.88"/>
	<line class="st0" x1="0" y1="455.21" x2="841.89" y2="455.21"/>
	<line class="st0" x1="0" y1="443.54" x2="841.89" y2="443.54"/>
	<line class="st0" x1="0" y1="431.87" x2="841.89" y2="431.87"/>
	<line class="st0" x1="0" y1="420.19" x2="841.89" y2="420.19"/>
	<line class="st0" x1="0" y1="408.52" x2="841.89" y2="408.52"/>
	<line class="st0" x1="0" y1="396.85" x2="841.89" y2="396.85"/>
	<line class="st0" x1="0" y1="385.18" x2="841.89" y2="385.18"/>
	<line class="st0" x1="0" y1="373.51" x2="841.89" y2="373.51"/>
	<line class="st0" x1="0" y1="361.83" x2="841.89" y2="361.83"/>
	<line class="st0" x1="0" y1="350.16" x2="841.89" y2="350.16"/>
	<line class="st0" x1="0" y1="338.49" x2="841.89" y2="338.49"/>
	<line class="st0" x1="0" y1="326.82" x2="841.89" y2="326.82"/>
	<line class="st0" x1="0" y1="315.15" x2="841.89" y2="315.15"/>
	<line class="st0" x1="0" y1="303.47" x2="841.89" y2="303.47"/>
	<line class="st0" x1="0" y1="291.8" x2="841.89" y2="291.8"/>
	<line class="st0" x1="0" y1="280.13" x2="841.89" y2="280.13"/>
	<line class="st0" x1="0" y1="268.46" x2="841.89" y2="268.46"/>
	<line class="st0" x1="0" y1="256.79" x2="841.89" y2="256.79"/>
	<line class="st0" x1="0" y1="245.11" x2="841.89" y2="245.11"/>
	<line class="st0" x1="0" y1="233.44" x2="841.89" y2="233.44"/>
	<line class="st0" x1="0" y1="221.77" x2="841.89" y2="221.77"/>
	<line class="st0" x1="0" y1="210.1" x2="841.89" y2="210.1"/>
	<line class="st0" x1="0" y1="198.43" x2="841.89" y2="198.43"/>
	<line class="st0" x1="0" y1="186.75" x2="841.89" y2="186.75"/>
	<line class="st0" x1="0" y1="175.08" x2="841.89" y2="175.08"/>
	<line class="st0" x1="0" y1="163.41" x2="841.89" y2="163.41"/>
	<line class="st0" x1="0" y1="151.74" x2="841.89" y2="151.74"/>
	<line class="st0" x1="0" y1="140.06" x2="841.89" y2="140.06"/>
	<line class="st0" x1="0" y1="128.39" x2="841.89" y2="128.39"/>
	<line class="st0" x1="0" y1="116.72" x2="841.89" y2="116.72"/>
	<line class="st0" x1="0" y1="105.05" x2="841.89" y2="105.05"/>
	<line class="st0" x1="0" y1="93.38" x2="841.89" y2="93.38"/>
	<line class="st0" x1="0" y1="81.7" x2="841.89" y2="81.7"/>
	<line class="st0" x1="0" y1="70.03" x2="841.89" y2="70.03"/>
	<line class="st0" x1="0" y1="58.36" x2="841.89" y2="58.36"/>
	<line class="st0" x1="0" y1="46.69" x2="841.89" y2="46.69"/>
	<line class="st0" x1="0" y1="35.02" x2="841.89" y2="35.02"/>
	<line class="st0" x1="0" y1="23.34" x2="841.89" y2="23.34"/>
	<line class="st0" x1="0" y1="11.67" x2="841.89" y2="11.67"/>
	<line class="st0" x1="825.38" y1="0" x2="825.38" y2="595.28"/>
	<line class="st0" x1="808.87" y1="0" x2="808.87" y2="595.28"/>
	<line class="st0" x1="792.37" y1="0" x2="792.37" y2="595.28"/>
	<line class="st0" x1="775.86" y1="0" x2="775.86" y2="595.28"/>
	<line class="st0" x1="759.35" y1="0" x2="759.35" y2="595.28"/>
	<line class="st0" x1="742.84" y1="0" x2="742.84" y2="595.28"/>
	<line class="st0" x1="726.34" y1="0" x2="726.34" y2="595.28"/>
	<line class="st0" x1="709.83" y1="0" x2="709.83" y2="595.28"/>
	<line class="st0" x1="693.32" y1="0" x2="693.32" y2="595.28"/>
	<line class="st0" x1="676.81" y1="0" x2="676.81" y2="595.28"/>
	<line class="st0" x1="660.31" y1="0" x2="660.31" y2="595.28"/>
	<line class="st0" x1="643.8" y1="0" x2="643.8" y2="595.28"/>
	<line class="st0" x1="627.29" y1="0" x2="627.29" y2="595.28"/>
	<line class="st0" x1="610.78" y1="0" x2="610.78" y2="595.28"/>
	<line class="st0" x1="594.28" y1="0" x2="594.28" y2="595.28"/>
	<line class="st0" x1="577.77" y1="0" x2="577.77" y2="595.28"/>
	<line class="st0" x1="561.26" y1="0" x2="561.26" y2="595.28"/>
	<line class="st0" x1="544.75" y1="0" x2="544.75" y2="595.28"/>
	<line class="st0" x1="528.24" y1="0" x2="528.24" y2="595.28"/>
	<line class="st0" x1="511.74" y1="0" x2="511.74" y2="595.28"/>
	<line class="st0" x1="495.23" y1="0" x2="495.23" y2="595.28"/>
	<line class="st0" x1="478.72" y1="0" x2="478.72" y2="595.28"/>
	<line class="st0" x1="462.21" y1="0" x2="462.21" y2="595.28"/>
	<line class="st0" x1="445.71" y1="0" x2="445.71" y2="595.28"/>
	<line class="st0" x1="429.2" y1="0" x2="429.2" y2="595.28"/>
	<line class="st0" x1="412.69" y1="0" x2="412.69" y2="595.28"/>
	<line class="st0" x1="396.18" y1="0" x2="396.18" y2="595.28"/>
	<line class="st0" x1="379.68" y1="0" x2="379.68" y2="595.28"/>
	<line class="st0" x1="363.17" y1="0" x2="363.17" y2="595.28"/>
	<line class="st0" x1="346.66" y1="0" x2="346.66" y2="595.28"/>
	<line class="st0" x1="330.15" y1="0" x2="330.15" y2="595.28"/>
	<line class="st0" x1="313.65" y1="0" x2="313.65" y2="595.28"/>
	<line class="st0" x1="297.14" y1="0" x2="297.14" y2="595.28"/>
	<line class="st0" x1="280.63" y1="0" x2="280.63" y2="595.28"/>
	<line class="st0" x1="264.12" y1="0" x2="264.12" y2="595.28"/>
	<line class="st0" x1="247.61" y1="0" x2="247.61" y2="595.28"/>
	<line class="st0" x1="231.11" y1="0" x2="231.11" y2="595.28"/>
	<line class="st0" x1="214.6" y1="0" x2="214.6" y2="595.28"/>
	<line class="st0" x1="198.09" y1="0" x2="198.09" y2="595.28"/>
	<line class="st0" x1="181.58" y1="0" x2="181.58" y2="595.28"/>
	<line class="st0" x1="165.08" y1="0" x2="165.08" y2="595.28"/>
	<line class="st0" x1="148.57" y1="0" x2="148.57" y2="595.28"/>
	<line class="st0" x1="132.06" y1="0" x2="132.06" y2="595.28"/>
	<line class="st0" x1="115.55" y1="0" x2="115.55" y2="595.28"/>
	<line class="st0" x1="99.05" y1="0" x2="99.05" y2="595.28"/>
	<line class="st0" x1="82.54" y1="0" x2="82.54" y2="595.28"/>
	<line class="st0" x1="66.03" y1="0" x2="66.03" y2="595.28"/>
	<line class="st0" x1="49.52" y1="0" x2="49.52" y2="595.28"/>
	<line class="st0" x1="33.02" y1="0" x2="33.02" y2="595.28"/>
	<line class="st0" x1="16.51" y1="0" x2="16.51" y2="595.28"/>
</g>
</svg>
